P3
20  10
255
220 235 255
219 235 255
219 235 255
198 167 187
181 132 147
186 133 151
188 136 158
201 165 185
198 211 234
125 134 154
135 156 181
184 199 221
151 178 202
196 214 235
219 235 255
219 235 255
219 235 255
220 235 255
220 235 255
219 235 255
220 235 255
220 235 255
220 235 255
172 125 143
186 132 151
179 126 144
187 133 148
199 141 159
159 165 186
112 119 135
128 144 170
164 170 196
122 156 181
126 158 181
216 231 251
220 235 255
220 235 255
220 235 255
220 235 255
220 235 255
221 235 255
221 235 255
209 212 230
157 115 128
171 121 139
164 119 133
174 124 143
186 132 148
149 156 172
184 204 218
141 151 176
194 212 231
112 137 155
122 149 166
201 216 235
221 235 255
221 235 255
221 235 255
221 235 255
221 235 255
208 215 236
206 217 235
203 215 233
153 110 124
152 109 125
158 116 131
131 94 116
171 122 137
165 184 208
200 215 240
197 215 239
181 198 219
80 100 117
75 98 114
192 199 213
189 199 224
215 229 252
193 208 230
209 222 246
211 222 239
144 103 127
89 101 117
95 153 113
121 99 103
146 107 120
141 96 110
152 106 124
142 116 133
172 168 209
189 209 240
188 210 240
138 131 168
116 130 173
121 136 154
65 146 150
86 104 77
94 128 145
102 149 146
108 130 147
112 111 145
98 109 124
115 130 124
139 84 88
140 138 162
120 100 116
123 87 100
98 77 111
108 90 110
130 117 142
140 147 177
108 70 117
101 85 133
108 106 137
85 85 97
96 100 57
108 127 120
112 129 150
132 131 158
116 127 130
115 134 130
44 91 117
88 70 107
66 76 119
117 116 133
87 84 98
67 45 57
65 63 107
102 101 125
96 109 141
48 80 123
71 84 143
89 76 140
87 95 96
73 60 95
71 101 106
85 108 102
113 144 146
140 157 182
123 140 171
102 93 203
147 159 182
128 96 102
89 143 100
91 131 116
127 138 160
77 114 88
69 128 81
117 134 156
69 136 142
25 137 140
92 108 141
58 106 102
59 96 60
75 102 64
55 64 124
107 133 138
61 120 46
156 170 181
155 172 209
87 93 166
144 148 158
124 143 129
66 148 77
83 134 107
124 143 169
87 140 94
62 137 33
119 146 157
76 123 134
16 116 113
121 148 170
86 135 136
58 146 118
50 133 96
96 114 118
116 134 156
110 170 185
132 166 193
129 146 172
116 175 171
104 143 104
85 107 102
67 121 68
110 110 113
141 140 161
56 118 26
61 131 30
125 151 169
100 125 143
77 115 125
124 144 169
110 126 142
109 72 98
90 104 103
121 141 164
123 153 178
136 202 241
133 190 227
134 162 190
115 178 161
